<svg version="1.0" id="katman_1" xmlns="http://www.w3.org/2000/svg" x="0px" y="0px"
     style="enable-background:new 0 0 841.9 595.3;" xml:space="preserve" viewBox="104.55 247.35 190.42 100.5">
    <style type="text/css">.st0{fill:#FBDD10;} </style>
    <g><path class="st0"
                 d="M241.5,347.1c-59.9,7.6-87.6-45.3-82.8-50.6c3.3-3.5,8.3-3.7,12.6-3.7c20.1-0.4,48.4,22.9,54.3,22.9
                 c11.1-0.2,27.9-18.1,39-32.7c4.6-6.1,33.3-15.5,30.1,0.7C284.4,335.7,249.1,346,241.5,347.1z"/>
        <path class="st0"
              d="M158,248.1c59.9-7.6,87.6,45.3,82.8,50.6c-3.3,3.5-8.3,3.7-12.6,3.7c-20,0.4-48.4-22.9-54.3-22.9
        c-11.1,0.2-27.9,18.1-39,32.7c-4.6,6.1-33.3,15.5-30.1-0.7C115.1,259.2,150.4,249,158,248.1z"/>
    </g>
</svg>