<?xml version="1.0" encoding="UTF-8"?>
<svg width="752pt" height="752pt" version="1.1" viewBox="300 180 140 430" xmlns="http://www.w3.org/2000/svg">
 <path d="m204.56 542.82c-0.65234-2.5312-3.2578-4.0469-5.7695-3.4102-2.5312 0.65625-4.0586 3.2344-3.4023 5.7695l0.63672 2.4492c0.57422 2.1094 2.4883 3.5 4.5703 3.5 0.41406 0 0.83203-0.054687 1.2422-0.16406 2.5234-0.68359 4.0156-3.2852 3.3398-5.8086zm20.445-88.512c-1.4883 0.79297-3 1.6641-4.5195 2.6211-2.2109 1.3945-2.875 4.3164-1.4766 6.5273 0.89844 1.4297 2.4336 2.2148 4.0078 2.2148 0.86719 0 1.7422-0.23828 2.5234-0.73047 1.3125-0.82812 2.6172-1.582 3.918-2.2734 2.3047-1.2266 3.1836-4.0938 1.9531-6.4023-1.2266-2.3125-4.0938-3.2031-6.4062-1.957zm-20.199 16.621c-1.0703 1.3555-2.1055 2.793-3.0938 4.3008-1.4297 2.1836-0.8125 5.125 1.375 6.5508 0.80078 0.52734 1.6992 0.77344 2.5859 0.77344 1.5469 0 3.0625-0.75391 3.9688-2.1484 0.82812-1.2617 1.6992-2.4648 2.6016-3.6055 1.6172-2.0586 1.2656-5.0352-0.78906-6.6562-2.0547-1.6133-5.0234-1.2578-6.6484 0.78516zm-7.8789 58.488c2.6055-0.26953 4.4922-2.5938 4.2227-5.1992-0.16406-1.5898-0.29297-3.1367-0.38281-4.6523-0.15234-2.6094-2.2656-4.5977-5-4.4492-2.6094 0.15625-4.6055 2.3906-4.4531 5.0039 0.10156 1.6484 0.23828 3.3398 0.41406 5.0703 0.25391 2.4375 2.3047 4.25 4.707 4.25 0.16016 0 0.32422-0.007812 0.49219-0.023437zm-0.72266-24.34c0.27344 0.046875 0.54688 0.070313 0.80859 0.070313 2.2656 0 4.2695-1.6289 4.6641-3.9375 0.25781-1.5195 0.57031-2.9961 0.92578-4.4219 0.64063-2.5352-0.90234-5.1055-3.4453-5.7383-2.5352-0.65625-5.1094 0.90234-5.7422 3.4453-0.40625 1.6484-0.77344 3.3555-1.0742 5.1172-0.44531 2.5742 1.2852 5.0234 3.8633 5.4648zm70.676-59.691c0 13.566 11.039 24.605 24.605 24.605 13.57 0 24.609-11.039 24.609-24.605s-11.039-24.605-24.609-24.605c-13.566 0-24.605 11.039-24.605 24.605zm-21.375 11.234c-2.207 0-4.1797-1.5508-4.6367-3.8008-0.51563-2.5664 1.1445-5.0625 3.7031-5.582 1.7734-0.35547 2.7969-0.47266 2.7969-0.47266 0.22266-0.023437 0.42187 0.050781 0.63672 0.054688-0.011718-0.47656-0.070312-0.94531-0.070312-1.4336 0-24.055 19.496-43.551 43.551-43.551s43.551 19.496 43.551 43.551-19.496 43.551-43.551 43.551c-20.414 0-37.504-14.066-42.215-33.023-0.26172 0.074219-0.48438 0.21875-0.76172 0.25-0.089843 0.015625-0.83594 0.11328-2.0547 0.35938-0.32422 0.066406-0.63672 0.097656-0.94922 0.097656zm318.19-105.3c0 17.449-14.152 31.602-31.609 31.602h-307.12c-17.457 0-31.605-14.152-31.605-31.602 0-17.457 14.148-31.609 31.605-31.609h28.629v-12.945c0-69 55.934-124.94 124.93-124.94s124.94 55.938 124.94 124.94v12.945h28.625c17.457 0 31.609 14.152 31.609 31.609zm-59.641 160.66c-47.309 0-95.137-23.027-125.39-0.17969-23.512-26.316-75.188 0.17969-125.67 0.17969-6.2227 0-10.621 6.207-8.207 11.824 11.906 27.664 39.789 47.105 72.367 47.105 24.879 0 46.992-11.355 61.371-29.035 14.379 17.68 36.496 29.035 61.371 29.035 32.578 0 60.465-19.441 72.367-47.105 2.418-5.6172-1.9844-11.824-8.207-11.824zm-88.805-65.988c0-18.688 15.145-33.836 33.832-33.836s33.84 15.148 33.84 33.836-15.152 33.84-33.84 33.84-33.832-15.152-33.832-33.84z" fill-rule="evenodd"/>
</svg>